<?xml version="1.0" standalone="no"?>
<!DOCTYPE svg PUBLIC "-//W3C//DTD SVG 20010904//EN"
 "http://www.w3.org/TR/2001/REC-SVG-20010904/DTD/svg10.dtd">
<svg version="1.0" xmlns="http://www.w3.org/2000/svg"
 width="375.000000pt" height="375.000000pt" viewBox="0 0 375.000000 375.000000"
 preserveAspectRatio="xMidYMid meet">

<g transform="translate(0.000000,375.000000) scale(0.100000,-0.100000)"
fill="#000000" stroke="none">
<path d="M1560 3374 c-312 -27 -498 -56 -742 -116 l-168 -41 0 -173 0 -174
-25 -16 c-14 -9 -42 -22 -63 -30 -35 -13 -32 -13 66 -14 l102 0 0 184 0 183
148 36 c346 85 578 112 987 112 408 0 638 -26 988 -111 l147 -36 0 -184 0
-184 98 0 c53 0 108 -2 122 -5 14 -3 -1 4 -33 14 -32 11 -69 27 -83 36 l-25
16 2 172 1 172 -163 42 c-337 85 -579 114 -999 118 -173 1 -335 1 -360 -1z"/>
<path d="M1631 3259 c-280 -17 -520 -56 -803 -130 l-38 -10 0 -154 0 -155 44
0 c29 0 70 13 127 39 120 55 271 104 449 144 85 20 166 38 180 40 15 3 9 5
-18 6 -106 3 -343 -47 -582 -125 -80 -25 -147 -46 -150 -45 -3 0 -5 13 -5 28
0 21 9 32 39 49 81 46 372 119 676 169 l135 23 -87 1 c-147 2 -377 -34 -640
-100 -64 -16 -119 -29 -122 -29 -16 0 -4 51 14 60 66 35 475 112 698 131 183
15 634 6 792 -16 137 -19 375 -66 483 -96 l77 -21 0 -133 c0 -128 1 -133 20
-128 19 5 20 14 20 158 l0 154 -56 16 c-334 97 -856 149 -1253 124z"/>
<path d="M1490 2933 c-111 -19 -398 -102 -422 -122 -22 -19 132 11 222 43 58
20 146 48 195 61 78 21 81 31 5 18z"/>
<path d="M1495 2825 c-29 -7 -40 -13 -25 -13 14 0 43 5 65 13 51 17 25 17 -40
0z"/>
<path d="M660 2584 c-140 -27 -272 -120 -329 -233 -47 -90 -63 -220 -40 -306
7 -25 28 -56 55 -82 59 -57 127 -77 264 -77 113 0 187 16 252 56 l37 23 -19
40 c-33 70 -33 70 -80 38 -40 -26 -51 -28 -136 -28 -103 0 -132 13 -168 75
-26 44 -25 142 2 203 55 124 193 199 309 168 46 -12 93 -54 93 -82 0 -17 9
-19 95 -19 52 0 98 0 103 1 8 0 6 39 -3 77 -10 41 -74 100 -133 123 -44 17
-83 22 -167 25 -60 1 -121 0 -135 -2z"/>
<path d="M1240 2544 c19 -49 9 -142 -44 -384 -29 -135 -49 -246 -45 -248 18
-7 111 53 153 98 50 53 53 63 99 280 l32 155 195 5 c219 6 239 11 266 75 8 19
14 37 14 40 0 3 -153 5 -340 5 l-340 0 10 -26z"/>
<path d="M1986 2520 c15 -59 13 -75 -54 -387 -30 -136 -44 -223 -38 -223 23 0
118 63 156 101 47 48 42 36 89 257 l37 177 195 5 c218 6 238 11 265 75 8 19
14 37 14 40 0 3 -152 5 -339 5 l-338 0 13 -50z"/>
<path d="M2714 2548 c17 -64 16 -100 -8 -212 -14 -66 -24 -122 -21 -124 8 -9
119 105 158 163 40 58 86 156 87 183 0 9 -29 12 -111 12 -111 0 -111 0 -105
-22z"/>
<path d="M3056 2421 c-104 -82 -232 -175 -285 -206 -53 -32 -98 -60 -100 -61
-5 -4 -50 -215 -51 -237 0 -16 9 -17 87 -15 l87 3 20 97 21 97 60 45 c33 25
63 46 66 46 4 0 44 -65 89 -145 l82 -145 119 0 c65 0 119 2 119 5 0 3 -54 93
-120 202 -66 108 -117 200 -113 203 4 4 83 62 176 129 92 68 167 125 167 127
0 2 -53 4 -117 3 l-118 0 -189 -148z"/>
<path d="M1477 2280 c-24 -19 -69 -85 -62 -92 2 -1 91 -2 198 0 l195 3 6 37
c4 20 9 45 12 55 5 16 -7 17 -159 17 -149 0 -167 -2 -190 -20z"/>
<path d="M2216 2279 c-25 -19 -56 -68 -56 -86 0 -4 87 -7 194 -5 l195 3 10 50
c6 27 11 52 11 54 0 3 -74 5 -164 5 -150 0 -165 -2 -190 -21z"/>
<path d="M760 2260 c0 -42 67 -100 114 -100 22 0 24 -7 39 -140 l13 -115 44 0
45 0 32 145 c17 80 35 162 38 183 l7 37 -166 0 c-109 0 -166 -4 -166 -10z"/>
<path d="M1398 1985 c-25 -22 -71 -50 -104 -62 l-59 -22 268 0 c147 -1 267 1
267 4 0 18 -31 73 -50 90 -19 17 -40 21 -150 25 l-128 5 -44 -40z"/>
<path d="M2136 1983 c-26 -23 -70 -50 -99 -60 l-52 -18 259 -3 c142 -1 261 0
264 3 9 8 -19 63 -45 87 -22 21 -36 23 -153 28 l-128 5 -46 -42z"/>
<path d="M1462 1758 c-17 -5 -38 -18 -47 -30 -22 -33 -19 -100 6 -132 19 -24
27 -27 73 -24 44 3 51 6 54 25 3 21 1 22 -28 12 -40 -15 -70 9 -70 56 0 40 27
65 65 62 20 -1 30 3 33 14 4 20 -40 29 -86 17z"/>
<path d="M1813 1759 c-43 -12 -67 -58 -60 -111 8 -61 31 -79 91 -76 44 3 51 6
54 25 3 20 1 21 -28 10 -29 -11 -34 -10 -51 12 -23 28 -24 59 -3 89 13 19 21
22 50 16 30 -5 34 -4 34 15 0 11 -6 21 -14 21 -8 0 -20 2 -28 4 -7 2 -28 0
-45 -5z"/>
<path d="M2060 1757 c-45 -15 -66 -68 -50 -128 13 -46 33 -59 94 -59 43 0 46
2 46 25 0 23 -2 24 -20 15 -28 -15 -59 -3 -71 27 -20 52 15 100 64 87 17 -4
26 -1 30 10 3 8 3 17 -1 19 -22 12 -61 14 -92 4z"/>
<path d="M1584 1743 c2 -14 11 -17 34 -15 53 6 55 -6 7 -68 -64 -83 -62 -90
30 -90 60 0 75 3 75 15 0 11 -12 15 -45 15 -25 0 -45 2 -45 5 0 3 20 32 45 66
25 34 45 67 45 75 0 11 -18 14 -74 14 -65 0 -74 -2 -72 -17z"/>
<path d="M2190 1745 c0 -11 11 -15 40 -15 22 0 40 -4 40 -8 0 -5 -20 -35 -45
-68 -24 -32 -45 -65 -45 -71 0 -9 23 -13 81 -13 71 0 80 2 77 17 -3 14 -12 17
-46 15 -23 -2 -42 1 -42 5 0 5 18 34 40 63 59 79 56 90 -30 90 -56 0 -70 -3
-70 -15z"/>
<path d="M830 1651 c0 -17 39 -119 65 -171 32 -64 131 -216 147 -226 6 -4 -9
21 -32 56 -49 72 -110 199 -136 282 -9 31 -23 59 -31 62 -7 3 -13 2 -13 -3z"/>
<path d="M598 1631 c29 -10 58 -23 63 -28 5 -5 18 -43 30 -84 91 -332 406
-696 859 -994 116 -76 302 -185 316 -185 15 0 221 122 339 201 447 300 750
657 839 990 19 70 32 83 101 105 38 12 34 13 -66 13 l-105 1 -18 -57 c-28 -89
-111 -244 -183 -341 -185 -247 -535 -531 -861 -696 l-49 -25 -119 67 c-489
278 -848 642 -960 975 l-26 77 -106 0 -107 -1 53 -18z"/>
<path d="M2852 1576 c-27 -84 -76 -185 -132 -269 -21 -31 -34 -55 -29 -52 32
21 162 244 195 337 17 50 18 58 2 58 -7 0 -23 -34 -36 -74z"/>
<path d="M1933 1604 c-3 -8 2 -23 11 -32 15 -15 17 -15 32 0 21 21 11 48 -16
48 -11 0 -23 -7 -27 -16z"/>
<path d="M1165 1450 c408 -70 887 -79 1330 -24 72 9 139 21 150 25 20 9 -246
6 -650 -7 -117 -4 -252 -1 -350 6 -88 7 -257 14 -375 16 l-215 3 110 -19z"/>
</g>
</svg>
