<svg xmlns="http://www.w3.org/2000/svg" width="33" height="33" viewBox="0 0 33 33"><defs><style>.a{fill:#ffe234;}.b{fill:none;stroke:#000;stroke-linecap:round;stroke-linejoin:round;stroke-width:2px;}</style></defs><g transform="translate(-347 -1340)"><path class="a" d="M14,0H33a0,0,0,0,1,0,0V19A14,14,0,0,1,19,33H0a0,0,0,0,1,0,0V14A14,14,0,0,1,14,0Z" transform="translate(347 1340)"/><g transform="translate(352.838 1345.838)"><circle class="b" cx="3.5" cy="3.5" r="3.5" transform="translate(7.162 7.162)"/><path class="b" d="M14.154,7.209v4.341a2.6,2.6,0,1,0,5.209,0v-.868a8.681,8.681,0,1,0-3.4,6.893" transform="translate(0)"/></g></g></svg>