<svg xmlns="http://www.w3.org/2000/svg" width="62" height="62" viewBox="0 0 62 62"><defs><style>.a{fill:#ffe234;}</style></defs><g transform="translate(-397 -311)"><path class="a" d="M31,0H62a0,0,0,0,1,0,0V31A31,31,0,0,1,31,62H0a0,0,0,0,1,0,0V31A31,31,0,0,1,31,0Z" transform="translate(397 311)"/><g transform="translate(411.648 325.646)"><path d="M25.042,20.693a1.574,1.574,0,0,0-1.876-.215L22.655,18.4v-.087a.511.511,0,0,0-.1-.148h0l-.721-.721a1.533,1.533,0,0,0-2.172,0h0L19.3,17.08l6.767-6.833a.511.511,0,0,1,.46-.138,5.039,5.039,0,0,0,2.356-.056,5.167,5.167,0,0,0,3.644-3.644,5.019,5.019,0,0,0,.138-1.866h0a1.022,1.022,0,0,0-1.748-.6L29.494,5.4a.511.511,0,0,1-.726,0L27.337,3.95a.531.531,0,0,1,.005-.741l1.426-1.452a1.014,1.014,0,0,0-.6-1.728,5.111,5.111,0,0,0-5.51,3.787A5.014,5.014,0,0,0,22.6,6.168a.511.511,0,0,1-.112.475l-6.854,6.818L7.271,5.11,7.006,3.761a1.533,1.533,0,0,0-.419-.787L3.913.3A1.022,1.022,0,0,0,2.467.3L.3,2.468a1.022,1.022,0,0,0,0,1.446L2.968,6.587a1.533,1.533,0,0,0,.787.419L5.1,7.272l8.356,8.362L6.643,22.487a.511.511,0,0,1-.46.138,5.039,5.039,0,0,0-2.356.056A5.167,5.167,0,0,0,.167,26.3a5.019,5.019,0,0,0-.138,1.866,1.027,1.027,0,0,0,1.748.6L3.2,27.312a.511.511,0,0,1,.726,0L5.37,28.759a.512.512,0,0,1-.005.726L3.939,30.936a1.022,1.022,0,0,0,.6,1.743,5.274,5.274,0,0,0,.567.031,5.111,5.111,0,0,0,4.942-3.818,5.014,5.014,0,0,0,.056-2.351.511.511,0,0,1,.112-.475l6.854-6.818.368.363h0a1.533,1.533,0,0,0,0,2.172l.721.705h0a.511.511,0,0,0,.148.1H18.4l2.07.511a1.533,1.533,0,0,0,.225,1.942l7.232,7.217a1.533,1.533,0,0,0,2.167,0l2.167-2.167a1.533,1.533,0,0,0,0-2.167ZM23.187,7.349a1.533,1.533,0,0,0,.414-1.4,4.038,4.038,0,0,1,.041-1.866,4.125,4.125,0,0,1,2.934-2.929,3.869,3.869,0,0,1,1.487-.107L26.616,2.5a1.533,1.533,0,0,0,0,2.172l1.446,1.457a1.533,1.533,0,0,0,2.172,0l1.452-1.477h0a4,4,0,0,1-.138,1.477,4.13,4.13,0,0,1-2.913,2.913,3.971,3.971,0,0,1-1.881.041,1.533,1.533,0,0,0-1.4.414l-6.833,6.854-2.167-2.167ZM9.52,25.36a1.533,1.533,0,0,0-.414,1.4,4.038,4.038,0,0,1-.041,1.866,4.125,4.125,0,0,1-2.913,2.913,3.869,3.869,0,0,1-1.487.107l1.426-1.457a1.533,1.533,0,0,0,0-2.167L4.644,26.576a1.533,1.533,0,0,0-2.172,0L1.046,28.048a4,4,0,0,1,.112-1.472,4.13,4.13,0,0,1,2.929-2.934A4.038,4.038,0,0,1,5.968,23.6a1.533,1.533,0,0,0,1.4-.414l6.818-6.833,2.167,2.167Zm11.173-7.344a.511.511,0,0,1,.363.148l.363.363-2.893,2.893-.363-.363a.511.511,0,0,1,0-.721l2.172-2.172A.511.511,0,0,1,20.693,18.015ZM3.188,1.021l.9.9L1.925,4.088l-.9-.9ZM3.7,5.861,2.283,4.456,4.455,2.284,5.861,3.694A.511.511,0,0,1,6,3.955l.245,1.237L5.191,6.25,3.954,6a.511.511,0,0,1-.261-.143Zm2.387.94.721-.721,12.1,12.082-.746.746ZM21.868,19.528l.434,1.733L21.28,22.283l-1.733-.434Zm9.67,9.839h0l-2.172,2.172a.511.511,0,0,1-.721,0l-7.227-7.232a.512.512,0,0,1,0-.721l2.167-2.167a.512.512,0,0,1,.721,0l7.232,7.227a.512.512,0,0,1,0,.721Z" transform="translate(0 0)"/><path d="M43.965,46.43a.255.255,0,0,0-.358.363l6.5,6.506a.261.261,0,0,0,.184.077.25.25,0,0,0,.179-.077.256.256,0,0,0,0-.363Z" transform="translate(-21.285 -22.665)"/><path d="M45.381,45.018a.257.257,0,0,0-.363.363l6.506,6.5a.25.25,0,0,0,.179.077.24.24,0,0,0,.179-.077.245.245,0,0,0,0-.358Z" transform="translate(-21.974 -21.974)"/><path d="M46.793,43.608a.255.255,0,0,0-.363.358l6.506,6.506a.261.261,0,0,0,.184.077.256.256,0,0,0,.179-.077.261.261,0,0,0,0-.363Z" transform="translate(-22.666 -21.284)"/></g></g></svg>