<svg xmlns="http://www.w3.org/2000/svg" width="62" height="62" viewBox="0 0 62 62"><defs><style>.a{fill:#ffe234;}</style></defs><g transform="translate(-397 -311)"><path class="a" d="M31,0H62a0,0,0,0,1,0,0V31A31,31,0,0,1,31,62H0a0,0,0,0,1,0,0V31A31,31,0,0,1,31,0Z" transform="translate(397 311)"/><g transform="translate(381.535 664.104)"><path d="M65.879-337.547a50.077,50.077,0,0,0-8.536,1.335l-1.933.472v3.992l-.288.184a4.762,4.762,0,0,1-.725.345c-.4.15-.368.15.759.161H56.33v-4.222l1.7-.414a41.458,41.458,0,0,1,11.355-1.288,41.821,41.821,0,0,1,11.366,1.277l1.691.414v4.234h1.127a11.746,11.746,0,0,1,1.4.058c.161.035-.012-.046-.38-.161a5.782,5.782,0,0,1-.955-.414l-.288-.184.023-1.979.012-1.979-1.875-.483a43.1,43.1,0,0,0-11.493-1.358C68.03-337.57,66.167-337.57,65.879-337.547Z" transform="translate(-23.099)"/><path d="M88.675-326.452a45.6,45.6,0,0,0-9.238,1.5l-.437.115v3.555h.506a3.954,3.954,0,0,0,1.461-.449,26.546,26.546,0,0,1,5.165-1.657c.978-.23,1.91-.437,2.071-.46s.1-.058-.207-.069a25.715,25.715,0,0,0-6.7,1.438c-.92.288-1.691.529-1.726.518s-.058-.15-.058-.322c0-.242.1-.368.449-.564a35.179,35.179,0,0,1,7.777-1.944l1.553-.265-1-.012a32.079,32.079,0,0,0-7.363,1.15c-.736.184-1.369.334-1.4.334-.184,0-.046-.587.161-.69a42.276,42.276,0,0,1,8.03-1.507,64.223,64.223,0,0,1,9.111.184,56.51,56.51,0,0,1,5.557,1.1l.886.242v1.53c0,1.473.012,1.53.23,1.473s.23-.161.23-1.818v-1.772l-.644-.184A47.875,47.875,0,0,0,88.675-326.452Z" transform="translate(-45.079 -9.772)"/><path d="M111.467-293.815a28.916,28.916,0,0,0-4.855,1.4c-.253.219,1.519-.127,2.554-.495.667-.23,1.68-.552,2.243-.7C112.307-293.849,112.341-293.964,111.467-293.815Z" transform="translate(-69.492 -38.658)"/><path d="M146.7-283.628c-.334.081-.46.15-.288.15a2.668,2.668,0,0,0,.748-.15C147.742-283.824,147.443-283.824,146.7-283.628Z" transform="translate(-104.663 -47.602)"/><path d="M32.426-258.612a5.525,5.525,0,0,0-3.785,2.681,5.445,5.445,0,0,0-.46,3.52,2.345,2.345,0,0,0,.633.943c.679.656,1.461.886,3.037.886a5.213,5.213,0,0,0,2.9-.644l.426-.265-.219-.46c-.38-.805-.38-.805-.92-.437-.46.3-.587.322-1.565.322-1.185,0-1.519-.15-1.933-.863a3.094,3.094,0,0,1,.023-2.335,3.222,3.222,0,0,1,3.555-1.933c.529.138,1.07.621,1.07.943,0,.2.1.219,1.093.219.6,0,1.127,0,1.185-.012.092,0,.069-.449-.035-.886a2.783,2.783,0,0,0-1.53-1.415,5.424,5.424,0,0,0-1.921-.288C33.289-258.646,32.587-258.635,32.426-258.612Z" transform="translate(0 -69.846)"/><path d="M116.079-256.7c.219.564.1,1.634-.506,4.418a23.328,23.328,0,0,0-.518,2.853c.207.081,1.277-.61,1.76-1.127.575-.61.61-.725,1.139-3.221l.368-1.783,2.243-.058c2.519-.069,2.75-.127,3.06-.863a2.745,2.745,0,0,0,.161-.46c0-.035-1.76-.058-3.911-.058h-3.911Z" transform="translate(-76.98 -71.297)"/><path d="M190.338-256.425c.173.679.15.863-.621,4.452a12.216,12.216,0,0,0-.437,2.565,5.53,5.53,0,0,0,1.795-1.162c.541-.552.483-.414,1.024-2.957l.426-2.036,2.243-.058c2.508-.069,2.738-.127,3.049-.863a2.747,2.747,0,0,0,.161-.46c0-.035-1.749-.058-3.9-.058h-3.889Z" transform="translate(-142.657 -71.297)"/><path d="M268.786-256.747a4.362,4.362,0,0,1-.092,2.439,8.458,8.458,0,0,0-.242,1.427,7.736,7.736,0,0,0,1.818-1.875,7.038,7.038,0,0,0,1-2.105c0-.1-.334-.138-1.277-.138C268.717-257,268.717-257,268.786-256.747Z" transform="translate(-212.73 -71.297)"/><path d="M267.016-255.221a40.455,40.455,0,0,1-3.279,2.37c-.61.368-1.127.69-1.15.7-.058.046-.575,2.473-.587,2.727,0,.184.1.2,1,.173l1-.035.23-1.116.242-1.116.69-.518a6.434,6.434,0,0,1,.759-.529,13.585,13.585,0,0,1,1.024,1.668l.943,1.668h1.369a7.935,7.935,0,0,0,1.369-.058c0-.035-.621-1.07-1.381-2.324a17.158,17.158,0,0,1-1.3-2.335c.046-.046.955-.713,2.025-1.484s1.921-1.438,1.921-1.461a9.435,9.435,0,0,0-1.346-.034H269.19Z" transform="translate(-207.026 -71.362)"/><path d="M142.149-229.77c-.276.219-.794.978-.713,1.058.023.012,1.047.023,2.278,0l2.243-.035.069-.426c.046-.23.1-.518.138-.633.058-.184-.081-.2-1.829-.2C142.62-230,142.413-229.977,142.149-229.77Z" transform="translate(-100.324 -95.191)"/><path d="M216.644-229.758a2,2,0,0,0-.644.989,13.712,13.712,0,0,0,2.232.058l2.243-.035.115-.575c.069-.311.127-.6.127-.621A14.964,14.964,0,0,0,218.83-230C217.1-230,216.932-229.977,216.644-229.758Z" transform="translate(-166.318 -95.191)"/><path d="M76-226.885a1.543,1.543,0,0,0,1.312,1.15c.253,0,.276.081.449,1.611l.15,1.323h1.024l.368-1.668c.2-.92.4-1.864.437-2.105l.081-.426H77.91A6.476,6.476,0,0,0,76-226.885Z" transform="translate(-42.424 -97.846)"/><path d="M125.375-202.04a4.458,4.458,0,0,1-1.2.713l-.679.253h3.083c1.691.012,3.072-.012,3.072-.046a2.406,2.406,0,0,0-.575-1.035c-.219-.2-.46-.242-1.726-.288l-1.473-.058Z" transform="translate(-84.459 -119.527)"/><path d="M200.237-202.017a4.079,4.079,0,0,1-1.139.69l-.6.207,2.98.035c1.634.012,3,0,3.037-.035.1-.092-.219-.725-.518-1-.253-.242-.414-.265-1.76-.322l-1.473-.058Z" transform="translate(-150.831 -119.527)"/><path d="M140.732-176.278a1.189,1.189,0,0,0-.541.345,1.526,1.526,0,0,0,.069,1.519c.219.276.311.311.84.276.506-.035.587-.069.621-.288.035-.242.012-.253-.322-.138-.46.173-.805-.1-.805-.644a.663.663,0,0,1,.748-.713c.23.012.345-.035.38-.161C141.768-176.313,141.261-176.416,140.732-176.278Z" transform="translate(-99.08 -142.677)"/><path d="M175.884-176.41a1.1,1.1,0,0,0-.69,1.277c.092.7.357.909,1.047.874.506-.035.587-.069.621-.288s.012-.242-.322-.115-.391.115-.587-.138a.785.785,0,0,1-.035-1.024c.15-.219.242-.253.575-.184s.391.046.391-.173c0-.127-.069-.242-.161-.242a1.553,1.553,0,0,1-.322-.046A1.314,1.314,0,0,0,175.884-176.41Z" transform="translate(-130.193 -142.557)"/><path d="M201.1-176.267a1.139,1.139,0,0,0-.575,1.473c.15.529.38.679,1.081.679.495,0,.529-.023.529-.288s-.023-.276-.23-.173a.566.566,0,0,1-.817-.311c-.23-.6.173-1.15.736-1,.2.046.3.012.345-.115.035-.092.035-.2-.012-.219A1.5,1.5,0,0,0,201.1-176.267Z" transform="translate(-152.572 -142.677)"/><path d="M158.124-175.8c.023.161.127.2.391.173.61-.069.633.069.081.782-.736.955-.713,1.035.345,1.035.69,0,.863-.035.863-.173s-.138-.173-.518-.173a1.16,1.16,0,0,1-.518-.058,6.61,6.61,0,0,1,.518-.759,3.329,3.329,0,0,0,.518-.863c0-.127-.207-.161-.851-.161C158.2-176,158.1-175.977,158.124-175.8Z" transform="translate(-115.068 -142.979)"/><path d="M218.115-175.827c0,.127.127.173.46.173.253,0,.46.046.46.092a4.188,4.188,0,0,1-.518.782,3.871,3.871,0,0,0-.518.817c0,.1.265.15.932.15.817,0,.92-.023.886-.2s-.138-.2-.529-.173c-.265.023-.483-.012-.483-.058a3.367,3.367,0,0,1,.46-.725c.679-.909.644-1.035-.345-1.035C218.276-176,218.115-175.965,218.115-175.827Z" transform="translate(-168.087 -142.979)"/><path d="M83-165.515a10.521,10.521,0,0,0,.748,1.967,17.031,17.031,0,0,0,1.691,2.6c.069.046-.1-.242-.368-.644a14.8,14.8,0,0,1-1.565-3.244,1.493,1.493,0,0,0-.357-.713C83.069-165.584,83-165.572,83-165.515Z" transform="translate(-48.618 -152.21)"/><path d="M55.11-164.781a3.293,3.293,0,0,1,.725.322,5.031,5.031,0,0,1,.345.966c1.047,3.819,4.671,8.007,9.882,11.435a34.166,34.166,0,0,0,3.635,2.128,36.336,36.336,0,0,0,3.9-2.312c5.142-3.451,8.628-7.558,9.652-11.389.219-.805.368-.955,1.162-1.208.437-.138.391-.15-.759-.15L82.444-165l-.207.656a16.444,16.444,0,0,1-2.105,3.923,31.123,31.123,0,0,1-9.905,8.007l-.564.288-1.369-.771c-5.626-3.2-9.756-7.386-11.044-11.217l-.3-.886H55.731l-1.231.012Z" transform="translate(-23.397 -152.713)"/><path d="M270.858-164.149a13.269,13.269,0,0,1-1.519,3.095c-.242.357-.391.633-.334.6a16.355,16.355,0,0,0,2.243-3.877c.2-.575.207-.667.023-.667C271.191-165,271.007-164.609,270.858-164.149Z" transform="translate(-213.214 -152.713)"/><path d="M193.223-161.816a.418.418,0,0,0,.127.368c.173.173.2.173.368,0,.242-.242.127-.552-.184-.552A.358.358,0,0,0,193.223-161.816Z" transform="translate(-146.152 -155.368)"/><path d="M106.765-146.681a54.273,54.273,0,0,0,15.3.276,15.836,15.836,0,0,0,1.726-.288,70.751,70.751,0,0,0-7.478.081c-1.346.046-2.9.012-4.027-.069-1.012-.081-2.957-.161-4.314-.184L105.5-146.9Z" transform="translate(-68.53 -168.731)"/></g></g></svg>