<svg xmlns="http://www.w3.org/2000/svg" width="62" height="62" viewBox="0 0 62 62"><defs><style>.a{fill:#ffe234;}</style></defs><g transform="translate(-397 -311)"><path class="a" d="M31,0H62a0,0,0,0,1,0,0V31A31,31,0,0,1,31,62H0a0,0,0,0,1,0,0V31A31,31,0,0,1,31,0Z" transform="translate(397 311)"/><g transform="translate(412.703 326.462)"><path d="M14.625,5.194a1.5,1.5,0,0,0,1.414,1.02h3.849A1.5,1.5,0,0,0,21.3,5.194a7.083,7.083,0,0,1,1.322-2.3,1.549,1.549,0,0,0,.525-1.472,1.474,1.474,0,0,0-1-1.13,4.07,4.07,0,0,0-3.987.5.5.5,0,0,1-.632,0,4.071,4.071,0,0,0-3.987-.5,1.474,1.474,0,0,0-1,1.13,1.549,1.549,0,0,0,.525,1.472A8.156,8.156,0,0,1,14.625,5.194ZM13.563,1.617a.44.44,0,0,1,.308-.344,4.3,4.3,0,0,1,1.346-.239,2.6,2.6,0,0,1,1.668.565,1.532,1.532,0,0,0,1.926,0,3.051,3.051,0,0,1,3.015-.326.44.44,0,0,1,.307.344.5.5,0,0,1-.178.484,8.04,8.04,0,0,0-1.632,2.755.467.467,0,0,1-.435.322H16.04a.466.466,0,0,1-.435-.322A8.954,8.954,0,0,0,13.741,2.1.5.5,0,0,1,13.563,1.617Z" transform="translate(-5.809 0)"/><path d="M24.3,13.516A.518.518,0,0,0,23.784,13a.506.506,0,0,0-.259.079A.5.5,0,0,0,23.266,13H17.05a.518.518,0,1,0,0,1.036h6.216v.518h-5.7a.518.518,0,0,0,0,1.036h6.177a2.563,2.563,0,0,0,3.478-.152.518.518,0,1,0-.732-.732,1.59,1.59,0,0,1-2.189.007Z" transform="translate(-7.744 -6.266)"/><path d="M14.784,26c-3.321,0-7.252,4.212-7.252,7.77a.518.518,0,0,0,1.036,0c0-2.958,3.486-6.734,6.216-6.734a.518.518,0,0,0,0-1.036Z" transform="translate(-3.406 -12.532)"/><path d="M25.882,25.732a16.414,16.414,0,0,0-1.811.1,10.251,10.251,0,0,0-2.779-3.265l-3.731-2.536A4.6,4.6,0,0,0,14.843,19H10.815a4.471,4.471,0,0,0-2.745.944L4.4,22.613A10.154,10.154,0,0,0,1.528,35.132c.784,1.546,2.094,3.415,3.885,3.536.14.009.282.015.425.015H15.918a4.133,4.133,0,0,0,6.772-.45,11.1,11.1,0,0,0,3.192.45c2.491,0,5.18-.792,5.18-2.072V33.761H31.02a.908.908,0,0,0,.041-.259V27.545C31.061,26.114,27.805,25.732,25.882,25.732Zm4.1,1.808a.363.363,0,0,1-.035.034c-.02.016-.045.033-.072.051s-.076.045-.121.067-.075.038-.119.057-.119.049-.184.074-.106.039-.166.06c-.076.025-.163.05-.25.074-.068.019-.136.039-.211.057-.1.024-.209.047-.32.069-.083.017-.163.035-.253.051-.124.022-.263.04-.4.059-.094.013-.181.027-.281.039-.163.019-.343.032-.522.045-.091.007-.174.016-.269.022-.283.016-.582.025-.9.025s-.619-.009-.9-.025c-.1-.005-.178-.015-.269-.022-.179-.013-.359-.026-.522-.045-.1-.011-.188-.026-.281-.039-.137-.019-.276-.037-.4-.059-.09-.016-.169-.034-.253-.051-.11-.023-.221-.045-.32-.069-.076-.019-.142-.038-.211-.057-.088-.024-.174-.049-.25-.074-.06-.02-.113-.04-.166-.06s-.13-.049-.184-.074-.082-.038-.119-.057-.087-.046-.121-.067a.775.775,0,0,1-.072-.051.309.309,0,0,1-.032-.031l.018-.016a.84.84,0,0,1,.074-.052,1.637,1.637,0,0,1,.156-.088c.034-.017.067-.034.106-.051s.088-.036.135-.055.117-.044.182-.065c.047-.016.092-.032.143-.047.116-.035.243-.07.382-.1.064-.016.139-.03.209-.044s.171-.036.263-.052.208-.035.319-.052a14.146,14.146,0,0,1,2.116-.149C28.327,26.768,29.7,27.273,29.986,27.54Zm-7.9,4.261.143.057c.09.035.182.068.278.1l.151.05c.109.034.222.066.337.1.04.011.079.023.12.033.157.039.318.076.482.108l.1.019q.2.037.4.068l.175.024c.117.016.234.03.352.042l.186.018c.122.011.245.019.368.026l.165.01c.177.008.354.013.53.013s.353-.005.53-.013l.168-.01c.122-.007.243-.016.365-.026l.191-.019q.175-.018.347-.041l.18-.024c.134-.02.265-.042.4-.067l.111-.02q.246-.049.48-.107l.128-.035c.112-.03.223-.061.329-.095l.153-.051q.142-.048.277-.1l.143-.057c.093-.039.182-.081.267-.123.027-.013.057-.025.083-.038l0,1.825c-.122.295-1.46.952-3.572,1.057-.19.007-.373.016-.578.016a9.672,9.672,0,0,1-3.129-.483l-.01-.016c-.061-.107-.126-.211-.2-.311-.01-.015-.022-.029-.033-.044-.065-.091-.132-.179-.2-.264-.022-.025-.045-.049-.067-.074-.064-.072-.128-.143-.2-.21-.035-.035-.073-.066-.109-.1-.06-.055-.119-.11-.182-.161l-.018-.016c0-.2,0-.653,0-1.219.026.014.058.026.085.039C21.909,31.722,22,31.763,22.087,31.8Zm-6.843,5.844H5.839c-.12,0-.239,0-.356-.012-1.018-.069-2.094-1.124-3.031-2.971A9.111,9.111,0,0,1,5.028,23.439l3.666-2.671a3.447,3.447,0,0,1,2.12-.733h4.028a3.633,3.633,0,0,1,2.111.841l3.731,2.535a9.165,9.165,0,0,1,2.3,2.59,4.864,4.864,0,0,0-1.725.644l-.036.025a1.689,1.689,0,0,0-.181.151c-.023.022-.044.045-.065.068a1.172,1.172,0,0,0-.112.139,1.009,1.009,0,0,0-.067.125.966.966,0,0,0-.053.116.887.887,0,0,0-.046.277v4.708a4.065,4.065,0,0,0-.541-.175l-.073-.019a4.1,4.1,0,0,0-.555-.092c-.021,0-.042,0-.064,0-.106-.008-.213-.016-.321-.016-.057,0-.112.006-.168.008l-.132.007a4.174,4.174,0,0,0-.544.071l-.01,0-.041.012a3.959,3.959,0,0,0-.474.138c-.056.02-.112.039-.167.061a4.108,4.108,0,0,0-.449.209c-.054.03-.105.064-.158.1-.1.062-.2.126-.294.2-.056.041-.112.081-.166.124a4.088,4.088,0,0,0-.348.315c-.048.049-.092.1-.138.152-.078.087-.152.178-.222.271-.038.051-.078.1-.113.151a4.1,4.1,0,0,0-.248.416c-.029.056-.055.113-.082.17a4.066,4.066,0,0,0-.158.39c-.013.039-.03.076-.042.115a4.1,4.1,0,0,0-.123.524c0,.023-.012.045-.016.067s0,.058-.008.086c-.017.122-.027.245-.033.37,0,.045-.006.089-.007.134,0,.019,0,.038,0,.057,0,.082.008.163.012.243A4.965,4.965,0,0,0,15.244,37.645Zm3.9,1.554a3.11,3.11,0,0,1-3.106-3.071c0-.04,0-.08,0-.121,0-.057,0-.113.009-.17s.009-.095.015-.142.013-.1.022-.143a3.008,3.008,0,0,1,.094-.4c0-.014.01-.027.015-.04a3.031,3.031,0,0,1,.156-.38l.017-.035a3.2,3.2,0,0,1,1.254-1.316l.006,0a3.072,3.072,0,0,1,.378-.179c.034-.013.068-.025.1-.037a2.9,2.9,0,0,1,.353-.1c.017,0,.032-.009.049-.012a3.175,3.175,0,0,1,.45-.056l.086,0a3.1,3.1,0,0,1,.455.017l.025,0a3.046,3.046,0,0,1,.47.1l.007,0a3.279,3.279,0,0,1,.871.4l.021.015c.018.012.035.026.052.039a3.125,3.125,0,0,1,.248.2l.056.051a3.167,3.167,0,0,1,.226.231l.022.024a3.1,3.1,0,0,1,.421.631c.026.052.053.1.076.157.039.091.074.182.1.275l.007.02c.03.094.054.189.075.285,0,.008,0,.015.006.022.02.1.034.192.045.289,0,.009,0,.017,0,.025a3.111,3.111,0,0,1,.017.319,3.145,3.145,0,0,1-.018.328c0,.016-.005.031-.007.047-.011.094-.025.187-.046.279,0,.01-.006.02-.008.031-.022.1-.049.2-.081.292l0,.012q-.051.151-.118.3A3.113,3.113,0,0,1,19.148,39.2Zm6.734-1.554a10.16,10.16,0,0,1-2.766-.366.007.007,0,0,0,0,0,4.156,4.156,0,0,0,.116-.517c.007-.042.013-.083.019-.126a4.163,4.163,0,0,0,.04-.542c0-.134-.007-.267-.02-.4,0-.048-.013-.094-.019-.141-.009-.067-.015-.134-.027-.2a14.908,14.908,0,0,0,2.656.222,11.681,11.681,0,0,0,4.146-.652l0,1.651C29.9,36.893,28.326,37.645,25.882,37.645Zm0-6.216c-2.436,0-4-.746-4.141-1.033,0-.59,0-1.19,0-1.689l.042.016c.124.053.253.1.391.148l.022.007c.141.046.29.087.441.124l.152.035c.111.025.223.05.337.071l.166.031c.126.022.252.042.38.061l.121.018c.167.022.335.042.5.058l.125.011c.128.011.254.022.38.03l.161.01c.116.007.229.012.341.016l.14.005c.152,0,.3.007.44.007s.287,0,.439-.007l.142-.005c.111,0,.223-.009.339-.016l.163-.01q.188-.012.38-.031l.123-.011c.167-.017.334-.036.5-.059l.122-.018q.191-.027.379-.061l.167-.031c.114-.022.227-.046.338-.072L29.127,29c.155-.039.306-.08.45-.127l.021-.007c.135-.045.263-.094.385-.146l.046-.018,0,1.651C29.9,30.677,28.326,31.43,25.882,31.43Z" transform="translate(0 -9.158)"/></g></g></svg>