<svg xmlns="http://www.w3.org/2000/svg" width="62" height="62" viewBox="0 0 62 62"><defs><style>.a{fill:#ffe234;}.b{fill-rule:evenodd;}</style></defs><g transform="translate(-397 -311)"><path class="a" d="M31,0H62a0,0,0,0,1,0,0V31A31,31,0,0,1,31,62H0a0,0,0,0,1,0,0V31A31,31,0,0,1,31,0Z" transform="translate(397 311)"/><path class="b" d="M31.879,16.81,16.055,32.634a.592.592,0,0,1-.066.1.729.729,0,0,1-.993,0,.638.638,0,0,1-.066-.1L3.295,21a.622.622,0,0,1-.1-.066.729.729,0,0,1,0-.993.672.672,0,0,1,.1-.066L19.119,4.051a.68.68,0,0,1,.538-.274h2.816A3.965,3.965,0,0,1,23.632,1.22l.011.012A.723.723,0,0,1,24.17,1a.77.77,0,0,1,.744.793.793.793,0,0,1-.306.624,2.27,2.27,0,0,0-.648,1.359h3.334a.678.678,0,0,1,.538.274L31.878,8.1a.683.683,0,0,1,.274.539v7.635A.68.68,0,0,1,31.879,16.81ZM24.7,11.875a.719.719,0,0,1-.526.232.769.769,0,0,1-.743-.793.8.8,0,0,1,.306-.625,2.015,2.015,0,0,0,.428-.613,1.392,1.392,0,1,0,1.435.473A2.556,2.556,0,0,1,24.7,11.875ZM30.764,8.9,27.029,5.165H24.1a2.057,2.057,0,0,0,.5.764h0a.68.68,0,0,1,.088.064l.012-.012a4.038,4.038,0,0,1,1.2,2.953c0,.029-.007.055-.008.083a2.772,2.772,0,1,1-1.5-.368,2.319,2.319,0,0,0-.659-1.47.807.807,0,0,1-.09-.064l-.011.012a3.844,3.844,0,0,1-1.078-1.962H19.922L4.65,20.437,15.492,31.279,30.764,16.007V8.9ZM10.832,19.246a.678.678,0,0,1,.959,0l4.893,4.893a.678.678,0,0,1-.959.959l-4.893-4.893A.678.678,0,0,1,10.832,19.246Zm2.777-2.777a.678.678,0,0,1,.959,0l4.893,4.893a.678.678,0,0,1-.959.959l-4.893-4.893A.678.678,0,0,1,13.608,16.47Z" transform="translate(409.424 325.535)"/></g></svg>