<svg xmlns="http://www.w3.org/2000/svg" width="62" height="62" viewBox="0 0 62 62"><defs><style>.a{fill:#ffe234;}</style></defs><g transform="translate(-397 -311)"><path class="a" d="M31,0H62a0,0,0,0,1,0,0V31A31,31,0,0,1,31,62H0a0,0,0,0,1,0,0V31A31,31,0,0,1,31,0Z" transform="translate(397 311)"/><g transform="translate(400.909 315.409)"><path d="M27.091,11.557A15.034,15.034,0,1,1,12.057,26.591,15.034,15.034,0,0,1,27.091,11.557m0-2.057A17.091,17.091,0,1,0,44.182,26.591,17.091,17.091,0,0,0,27.091,9.5Z"/><path d="M50.6,11.557c.661,0,1.829,1.158,2.826,3.7a32.181,32.181,0,0,1,1.82,11.334,31.9,31.9,0,0,1-1.82,11.334c-1,2.532-2.162,3.7-2.826,3.7s-1.829-1.158-2.826-3.7a32.254,32.254,0,0,1-1.82-11.334,31.9,31.9,0,0,1,1.82-11.334c1-2.545,2.168-3.7,2.826-3.7m0-2.057c-3.7,0-6.7,7.653-6.7,17.091s3,17.091,6.7,17.091,6.7-7.653,6.7-17.091S54.306,9.5,50.6,9.5Z" transform="translate(-23.171)"/><path d="M30.017-.734H0V-2H30.017Z" transform="translate(12.424 33.297)"/><path d="M30.017-.734H0V-2H30.017Z" transform="translate(12.424 22.615)"/></g></g></svg>