<svg xmlns="http://www.w3.org/2000/svg" width="62" height="62" viewBox="0 0 62 62"><defs><style>.a{fill:#ffe234;}</style></defs><g transform="translate(-397 -311)"><path class="a" d="M31,0H62a0,0,0,0,1,0,0V31A31,31,0,0,1,31,62H0a0,0,0,0,1,0,0V31A31,31,0,0,1,31,0Z" transform="translate(397 311)"/><g transform="translate(312.5 240.917)"><g transform="translate(101 85.1)"><path d="M129.983,94.593c0-.009,0-.019-.009-.019,0-.019-.009-.028-.009-.047s-.009-.028-.009-.037-.009-.019-.009-.028a.5.5,0,0,0-.065-.122h0L123.8,85.409a.69.69,0,0,0-.58-.309H107.78a.69.69,0,0,0-.58.309l-6.079,8.931h0a.773.773,0,0,0-.065.122c0,.009-.009.019-.009.028a.056.056,0,0,0-.009.037c0,.019-.009.028-.009.047s0,.019-.009.019a.722.722,0,0,0-.019.14h0v21.632a.707.707,0,0,0,.7.7h27.6a.707.707,0,0,0,.7-.7V94.733h0C129.992,94.686,129.992,94.639,129.983,94.593Zm-2.02-.561H118.9l-.851-7.529h4.788Zm-14.552,1.4h4.162v5.144L115.9,99.4a.683.683,0,0,0-.8,0l-1.674,1.178V95.434Zm3.227-8.931.851,7.529h-3.993l.851-7.529Zm-8.483,0h4.788l-.851,7.529h-9.062Zm20.435,29.16H102.4V95.434h9.614v6.49a.72.72,0,0,0,.374.627.706.706,0,0,0,.729-.047l2.375-1.674,2.375,1.674a.711.711,0,0,0,.4.131.8.8,0,0,0,.327-.075.7.7,0,0,0,.374-.627v-6.49h9.614Z" transform="translate(-101 -85.1)"/><path d="M145.977,330.4H141a.7.7,0,0,0,0,1.4h4.975a.7.7,0,0,0,0-1.4Z" transform="translate(-136.625 -307.459)"/><path d="M143.489,361.9H141a.7.7,0,0,0,0,1.4h2.488a.7.7,0,0,0,0-1.4Z" transform="translate(-136.625 -336.013)"/></g></g></g></svg>