<svg xmlns="http://www.w3.org/2000/svg" width="62" height="62" viewBox="0 0 62 62"><defs><style>.a{fill:#ffe234;}.b,.d{fill:none;}.b{stroke:#000;stroke-width:2px;}.c{stroke:none;}</style></defs><g transform="translate(-375 -842)"><path class="a" d="M31,0H62a0,0,0,0,1,0,0V31A31,31,0,0,1,31,62H0a0,0,0,0,1,0,0V31A31,31,0,0,1,31,0Z" transform="translate(375 842)"/><g class="b" transform="translate(389 856)"><circle class="c" cx="17" cy="17" r="17"/><circle class="d" cx="17" cy="17" r="16"/></g><path d="M.86-12.2v-2.08H-.84v2.08Zm-1.7,1.86V0H.86V-10.34Z" transform="translate(406 881)"/></g></svg>