<svg xmlns="http://www.w3.org/2000/svg" width="33" height="33" viewBox="0 0 33 33"><defs><style>.a{fill:#ffe234;}</style></defs><g transform="translate(-347 -1340)"><path class="a" d="M14,0H33a0,0,0,0,1,0,0V19A14,14,0,0,1,19,33H0a0,0,0,0,1,0,0V14A14,14,0,0,1,14,0Z" transform="translate(347 1340)"/><path d="M14.382,1.2h2.789a.744.744,0,0,1,.744.744V5.663a.744.744,0,0,1-.744.744H14.382a.186.186,0,0,0-.186.186V8.638h2.975a.744.744,0,0,1,.722.924l-.93,3.719a.744.744,0,0,1-.722.563H14.2V20.54a.744.744,0,0,1-.744.744H9.733a.744.744,0,0,1-.744-.744V13.845H6.944A.744.744,0,0,1,6.2,13.1V9.382a.744.744,0,0,1,.744-.744H8.989V6.593A5.4,5.4,0,0,1,14.382,1.2Zm2.046,1.488H14.382a3.91,3.91,0,0,0-3.905,3.905V9.382a.744.744,0,0,1-.744.744H7.688v2.231H9.733a.744.744,0,0,1,.744.744V19.8h2.231V13.1a.744.744,0,0,1,.744-.744h2.209l.558-2.231H13.452a.744.744,0,0,1-.744-.744V6.593a1.676,1.676,0,0,1,1.674-1.674h2.046Z" transform="translate(351.442 1345.758)"/></g></svg>