<svg xmlns="http://www.w3.org/2000/svg" width="33" height="33" viewBox="0 0 33 33"><defs><style>.a{fill:#ffe234;}.b{fill:none;stroke:#000;stroke-linecap:round;stroke-linejoin:round;stroke-width:1.5px;}</style></defs><g transform="translate(-347 -1340)"><path class="a" d="M14,0H33a0,0,0,0,1,0,0V19A14,14,0,0,1,19,33H0a0,0,0,0,1,0,0V14A14,14,0,0,1,14,0Z" transform="translate(347 1340)"/><g transform="translate(354.284 1347.903)"><path class="b" d="M16.88,7.94c0,5.4-6.94,10.024-6.94,10.024S3,13.337,3,7.94a6.94,6.94,0,1,1,13.88,0Z" transform="translate(-0.724 -0.885)"/><circle class="b" cx="2.233" cy="2.233" r="2.233" transform="translate(6.983 5.248)"/></g></g></svg>